<svg width="180" height="72" viewBox="0 0 180 72" fill="none" xmlns="http://www.w3.org/2000/svg">
<path fill-rule="evenodd" clip-rule="evenodd" d="M157.868 57.1683C157.868 55.4129 158.855 53.493 160.94 53.493C161.763 53.493 162.311 53.7672 162.311 53.7672L161.982 54.8095C161.982 54.8095 161.543 54.5901 161.049 54.5901C160.007 54.5901 159.459 55.4678 159.294 56.3455C159.513 56.0712 160.062 55.9066 160.556 55.9066C161.872 55.9066 162.695 56.9489 162.695 58.1009C162.695 59.3077 161.817 60.2951 160.501 60.2951C159.02 60.2951 157.868 59.198 157.868 57.1683ZM161.379 58.1009C161.379 57.4426 160.94 56.894 160.172 56.894C159.568 56.894 159.075 57.2232 159.075 57.6072C159.075 58.43 159.678 59.2529 160.391 59.2529C161.049 59.198 161.379 58.7043 161.379 58.1009Z" fill="#F15E27"/>
<path fill-rule="evenodd" clip-rule="evenodd" d="M101.914 58.4849H99.6104L99.0618 60.1854H97.8001L100.104 53.5478H101.366L103.67 60.1854H102.408L101.914 58.4849ZM100.707 54.7547C100.707 54.7547 100.543 55.4129 100.433 55.7969L99.8298 57.5523H101.585L100.982 55.7969C100.938 55.6433 100.894 55.4458 100.854 55.2642C100.793 54.9916 100.74 54.7547 100.707 54.7547Z" fill="#F15E27"/>
<path d="M104.273 55.4678H105.48V58.2655C105.48 58.8689 105.645 59.2529 106.193 59.2529C107.071 59.2529 107.51 58.4849 107.51 57.662V55.4678H108.716V60.2403H107.565V59.3626C107.345 59.8563 106.742 60.35 105.919 60.35C104.877 60.35 104.273 59.8563 104.273 58.5397V55.4678Z" fill="#F15E27"/>
<path d="M109.649 56.4552H110.252V58.4849C110.252 60.0757 111.569 60.2951 112.227 60.2951C112.447 60.2951 112.611 60.2403 112.611 60.2403V59.198H112.392C112.063 59.198 111.459 59.0883 111.459 58.3203V56.4552H112.556V55.5226H111.459V54.1512H110.307V55.5226H109.649V56.4552Z" fill="#F15E27"/>
<path fill-rule="evenodd" clip-rule="evenodd" d="M115.793 55.3581C117.274 55.3581 118.426 56.4003 118.426 57.8266C118.426 59.3077 117.274 60.2951 115.793 60.2951C114.312 60.2951 113.16 59.2529 113.16 57.8266C113.215 56.4003 114.367 55.3581 115.793 55.3581ZM115.793 59.3077C116.561 59.3077 117.219 58.7043 117.219 57.8266C117.219 56.9489 116.561 56.3455 115.793 56.3455C115.025 56.3455 114.367 56.9489 114.367 57.8266C114.422 58.7043 115.025 59.3077 115.793 59.3077Z" fill="#F15E27"/>
<path d="M120.511 55.4678H119.359V60.2403H120.456V58.1557C120.456 57.9363 120.456 57.7169 120.511 57.5523C120.62 56.9489 121.059 56.4552 121.663 56.4552C122.211 56.4552 122.321 56.894 122.321 57.3878V60.2403H123.528V58.1557C123.528 57.9363 123.528 57.7169 123.583 57.5523C123.747 56.9489 124.131 56.4552 124.735 56.4552C125.283 56.4552 125.393 56.8392 125.393 57.3878V60.2403H126.6V57.1683C126.6 55.9066 126.051 55.3581 125.064 55.3581C124.296 55.3581 123.692 55.8518 123.418 56.3455C123.253 55.6872 122.76 55.3581 122.047 55.3581C121.333 55.3581 120.73 55.9066 120.511 56.3455V55.4678Z" fill="#F15E27"/>
<path fill-rule="evenodd" clip-rule="evenodd" d="M130.33 57.2232H130.494V57.1683C130.494 56.5649 130.11 56.3455 129.562 56.3455C128.904 56.3455 128.245 56.7843 128.245 56.7843L127.806 55.9615C127.806 55.9615 128.52 55.3581 129.672 55.3581C130.933 55.3581 131.646 56.0712 131.646 57.278V60.2403H130.549V59.4723C130.549 59.4723 130.165 60.2951 129.123 60.2951C128.3 60.2951 127.532 59.7466 127.532 58.814C127.477 57.3329 129.562 57.2232 130.33 57.2232ZM129.397 59.4174C130.001 59.4174 130.494 58.7592 130.494 58.1557V58.046H130.275C129.672 58.046 128.684 58.1557 128.684 58.814C128.684 59.0883 128.904 59.4174 129.397 59.4174Z" fill="#F15E27"/>
<path d="M132.469 56.4552H133.073V58.4849C133.073 60.0757 134.389 60.2951 135.048 60.2951C135.267 60.2951 135.432 60.2403 135.432 60.2403V59.198H135.212C134.883 59.198 134.28 59.0883 134.28 58.3203V56.4552H135.377V55.5226H134.28V54.1512H133.128V55.5226H132.469V56.4552Z" fill="#F15E27"/>
<path d="M136.364 53.6027H137.516V54.6449H136.364V53.6027Z" fill="#F15E27"/>
<path d="M136.364 55.4678H137.571V60.2403H136.364V55.4678Z" fill="#F15E27"/>
<path fill-rule="evenodd" clip-rule="evenodd" d="M143.77 57.8266C143.77 56.4003 142.618 55.3581 141.137 55.3581C139.655 55.3581 138.503 56.4003 138.503 57.8266C138.503 59.2529 139.655 60.2951 141.137 60.2951C142.618 60.2951 143.77 59.3077 143.77 57.8266ZM142.563 57.8266C142.563 58.7043 141.905 59.3077 141.137 59.3077C140.369 59.3077 139.71 58.7043 139.71 57.8266C139.71 56.9489 140.369 56.3455 141.137 56.3455C141.905 56.3455 142.563 56.9489 142.563 57.8266Z" fill="#F15E27"/>
<path d="M144.702 55.4678H145.854V56.3455C146.074 55.9615 146.567 55.3581 147.555 55.3581C148.597 55.3581 149.2 55.9066 149.2 57.1683V60.2403H148.048V57.4426C148.048 56.8392 147.884 56.4552 147.28 56.4552C146.622 56.4552 146.183 56.8392 146.019 57.4426C146.011 57.4745 146.003 57.5052 145.995 57.5353C145.949 57.7121 145.909 57.8666 145.909 58.1009V60.2951H144.702V55.4678Z" fill="#F15E27"/>
<path d="M154.412 59.1432C153.534 59.1432 152.931 58.4849 152.931 58.4849L152.327 59.4723C152.327 59.4723 153.095 60.35 154.522 60.35C155.948 60.35 156.825 59.3077 156.825 58.1558C156.825 57.0038 155.948 56.3455 155.015 56.2358L156.661 54.3707V53.6027H152.602V54.6449H154.576C154.96 54.6449 155.18 54.5901 155.18 54.5901C155.18 54.5901 154.96 54.7547 154.686 55.0838L153.479 56.5101L153.754 57.1135H154.192C154.96 57.1135 155.619 57.4426 155.619 58.1558C155.619 58.7043 155.125 59.1432 154.412 59.1432Z" fill="#F15E27"/>
<path fill-rule="evenodd" clip-rule="evenodd" d="M165.932 53.493C164.121 53.493 163.518 54.9741 163.518 56.894C163.518 58.814 164.121 60.2951 165.932 60.35C167.742 60.35 168.345 58.7592 168.345 56.894C168.345 55.0289 167.742 53.493 165.932 53.493ZM165.932 54.5901C166.809 54.5901 167.084 55.6324 167.084 56.894C167.084 58.2106 166.809 59.198 165.932 59.198C165.054 59.198 164.78 58.2106 164.78 56.894C164.78 55.6324 165.054 54.5901 165.932 54.5901Z" fill="#F15E27"/>
<path d="M170.594 15.1484H171.911V18.5495H172.46V15.1484H173.776V14.6547H170.594V15.1484Z" fill="#BCBEC0"/>
<path d="M175.038 14.6547H174.489L174.05 18.5495H174.599L174.764 16.1358V15.5324C174.764 15.5324 174.873 15.9164 174.983 16.1358L175.751 17.8912H176.245L177.013 16.1358C177.122 15.9164 177.232 15.5873 177.232 15.5873V16.1358L177.451 18.5495H178L177.671 14.6547H177.122L176.245 16.7392L176.08 17.2329C176.08 17.2329 176.025 16.9587 175.916 16.7392L175.038 14.6547Z" fill="#BCBEC0"/>
<path fill-rule="evenodd" clip-rule="evenodd" d="M95.88 26.6682C96.4834 26.0648 96.9223 25.3517 97.2514 24.5288C97.5806 23.706 97.7451 22.8831 97.7451 21.9506C97.7451 21.0729 97.5806 20.1952 97.2514 19.3723C96.9223 18.5495 96.4286 17.8912 95.88 17.2329C95.3315 16.5747 94.5635 16.1358 93.7955 15.7518C93.0275 15.3678 92.0949 15.2033 91.1075 15.2033C90.1201 15.2033 89.1875 15.3678 88.3647 15.7518C87.5419 16.1358 86.8836 16.6295 86.2802 17.2329C85.6767 17.8364 85.2379 18.5495 84.9088 19.3723C84.5796 20.1952 84.415 21.018 84.415 21.9506C84.415 22.8283 84.5796 23.706 84.9088 24.5288C85.2379 25.3517 85.7316 26.01 86.2802 26.6682C86.8287 27.3265 87.5967 27.7654 88.3647 28.1494C89.1327 28.5333 90.0652 28.6979 91.0527 28.6979C92.0401 28.6979 92.9726 28.5333 93.7955 28.1494C94.6183 27.7654 95.2766 27.2716 95.88 26.6682ZM94.728 18.1655C95.2217 18.6592 95.5509 19.2078 95.8252 19.866C96.0994 20.5243 96.2092 21.2375 96.2092 21.9506C96.2092 22.6637 96.0994 23.3769 95.8252 24.0351C95.6057 24.6934 95.2217 25.242 94.7829 25.7357C94.344 26.2294 93.7955 26.6134 93.1921 26.8877C92.5338 27.1619 91.8755 27.3265 91.1075 27.3265C90.3395 27.3265 89.6813 27.1619 89.023 26.8877C88.3647 26.6134 87.8161 26.2294 87.3773 25.7357C86.8836 25.242 86.5544 24.6934 86.2802 24.0351C86.0059 23.3769 85.8962 22.7186 85.8962 21.9506C85.8962 21.2375 86.0607 20.5243 86.2802 19.866C86.4996 19.2078 86.8836 18.6592 87.3224 18.1655C87.7613 17.6718 88.3098 17.2878 88.9133 17.0135C89.5715 16.7392 90.2298 16.5747 90.9978 16.5747C91.7658 16.5747 92.4241 16.7392 93.0823 17.0135C93.7406 17.2878 94.2892 17.6718 94.728 18.1655Z" fill="#333333"/>
<path fill-rule="evenodd" clip-rule="evenodd" d="M59.4006 28.4785H60.9914L54.9572 15.313H53.5858L47.6613 28.4785H49.1973L50.7333 25.0225H57.8646L59.4006 28.4785ZM51.3367 23.7609L54.3538 17.0684L57.2612 23.7609H51.3367Z" fill="#333333"/>
<path d="M72.1272 25.4614C72.4015 24.7483 72.5112 23.8706 72.5112 22.938H72.5661V15.4227H71.085V23.0477C71.085 24.474 70.7558 25.5711 70.0427 26.2842C69.3296 26.9974 68.397 27.3814 67.1902 27.3814C65.9285 27.3814 64.941 26.9974 64.2279 26.2294C63.5148 25.4614 63.1856 24.3643 63.1856 22.938V15.4227H61.7045V23.0477C61.7045 23.9803 61.8142 24.858 62.0885 25.5162C62.3628 26.1745 62.6919 26.7779 63.1856 27.2716C63.6245 27.7654 64.2279 28.1493 64.8862 28.3688C65.5445 28.6431 66.2576 28.7528 67.0804 28.7528C67.9033 28.7528 68.6713 28.5882 69.3296 28.3688C69.9878 28.0945 70.5364 27.7654 71.0301 27.2716C71.4689 26.7779 71.8529 26.1745 72.1272 25.4614Z" fill="#333333"/>
<path d="M79.8071 28.4785H78.326V16.7941H73.9375V15.4227H84.1956V16.7941H79.8071V28.4785Z" fill="#333333"/>
<path d="M106.083 24.9128H106.028L101.256 17.9461V28.4785H99.8297V15.4227H101.311L106.083 22.554L110.856 15.4227H112.337V28.4785H110.856V17.9461L106.083 24.9128Z" fill="#333333"/>
<path fill-rule="evenodd" clip-rule="evenodd" d="M125.502 28.4785H127.093L121.059 15.313H119.688L113.763 28.4785H115.299L116.835 25.0225H123.966L125.502 28.4785ZM117.439 23.706L120.401 17.0684L123.363 23.706H117.439Z" fill="#333333"/>
<path d="M131.646 28.4785H130.165V16.7941H125.777V15.4227H136.035V16.7941H131.646V28.4785Z" fill="#333333"/>
<path d="M139.107 28.4785V15.4227H137.626V28.4785H139.107Z" fill="#333333"/>
<path fill-rule="evenodd" clip-rule="evenodd" d="M154.192 24.5288C153.863 25.3517 153.424 26.0648 152.821 26.6682C152.217 27.2716 151.559 27.7654 150.736 28.1494C149.913 28.5333 148.981 28.6979 147.994 28.6979C147.006 28.6979 146.074 28.5333 145.306 28.1494C144.538 27.7654 143.77 27.3265 143.221 26.6682C142.672 26.01 142.179 25.3517 141.85 24.5288C141.52 23.706 141.356 22.8283 141.356 21.9506C141.356 21.018 141.52 20.1952 141.85 19.3723C142.179 18.5495 142.618 17.8364 143.221 17.2329C143.824 16.6295 144.483 16.1358 145.306 15.7518C146.128 15.3678 147.061 15.2033 148.048 15.2033C149.036 15.2033 149.968 15.3678 150.736 15.7518C151.504 16.1358 152.272 16.5747 152.821 17.2329C153.369 17.8912 153.863 18.5495 154.192 19.3723C154.521 20.1952 154.686 21.0729 154.686 21.9506C154.686 22.8831 154.521 23.706 154.192 24.5288ZM152.766 19.866C152.492 19.2078 152.163 18.6592 151.669 18.1655C151.23 17.6718 150.681 17.2878 150.023 17.0135C149.365 16.7392 148.707 16.5747 147.939 16.5747C147.171 16.5747 146.512 16.7392 145.854 17.0135C145.251 17.2878 144.702 17.6718 144.263 18.1655C143.824 18.6592 143.44 19.2078 143.221 19.866C143.002 20.5243 142.837 21.2375 142.837 21.9506C142.837 22.7186 142.947 23.3769 143.221 24.0351C143.495 24.6934 143.824 25.242 144.318 25.7357C144.757 26.2294 145.306 26.6134 145.964 26.8877C146.622 27.1619 147.28 27.3265 148.048 27.3265C148.816 27.3265 149.475 27.1619 150.133 26.8877C150.736 26.6134 151.285 26.2294 151.724 25.7357C152.163 25.242 152.547 24.6934 152.766 24.0351C153.04 23.3769 153.15 22.6637 153.15 21.9506C153.15 21.2375 153.04 20.5243 152.766 19.866Z" fill="#333333"/>
<path d="M167.797 15.4227H166.37V25.9002L158.142 15.4227H156.771V28.4785H158.197V17.7815L166.645 28.4785H167.797V15.4227Z" fill="#333333"/>
<path fill-rule="evenodd" clip-rule="evenodd" d="M65.1605 35.1161H67.7936L73.3889 48.2816H70.3718L69.165 45.3742H63.6245L62.4177 48.2816H59.5651L65.1605 35.1161ZM68.1776 42.796L66.4222 38.572L64.6668 42.796H68.1776Z" fill="#333333"/>
<path d="M76.9546 35.171H74.2666V48.2268H77.1192V39.9435L83.4825 48.2268H85.951V35.171H83.0985V43.2348L76.9546 35.171Z" fill="#333333"/>
<path d="M91.7109 43.0703L86.719 35.171H90.0653L93.1921 40.4372L96.3737 35.171H99.6103L94.6183 43.0154V48.2268H91.7658V43.0703H91.7109Z" fill="#333333"/>
<path d="M103.011 35.171H99.9394L104.328 48.3365H106.851L109.814 39.7789L112.776 48.3365H115.244L119.688 35.171H116.671L113.983 44.0028L111.075 35.1161H108.607L105.699 44.0028L103.011 35.171Z" fill="#333333"/>
<path d="M120.73 35.171H123.582V40.3274H128.904V35.171H131.756V48.2268H128.904V42.9606H123.582V48.2268H120.73V35.171Z" fill="#333333"/>
<path d="M143.824 35.171H133.95V48.2816H143.879V45.7034H136.803V42.9606H142.947V40.3823H136.803V37.7492H143.824V35.171Z" fill="#333333"/>
<path fill-rule="evenodd" clip-rule="evenodd" d="M145.744 35.171H151.724C153.369 35.171 154.631 35.6098 155.509 36.4875C156.277 37.2555 156.606 38.2429 156.606 39.4497V39.5046C156.606 40.5469 156.332 41.4246 155.838 42.0828C155.344 42.7411 154.631 43.2348 153.808 43.564L156.99 48.2268H153.644L150.846 44.0577H148.597V48.2268H145.744V35.171ZM151.504 41.5343C152.217 41.5343 152.766 41.3697 153.15 41.0406C153.534 40.7114 153.699 40.2726 153.699 39.724V39.6692C153.699 39.0658 153.479 38.572 153.095 38.2429C152.711 37.9138 152.163 37.8041 151.449 37.8041H148.597V41.5343H151.504Z" fill="#333333"/>
<path d="M168.126 35.171H158.307V48.2816H168.181V45.7034H161.104V42.9606H167.248V40.3823H161.104V37.7492H168.126V35.171Z" fill="#333333"/>
<path d="M59.0166 56.2907C57.9195 54.8644 56.1641 53.6575 54.7927 52.725C51.8305 50.7502 49.0876 49.3239 46.1254 48.2268L32.137 9.55308C32.0822 9.27879 31.7531 8.34624 31.0399 7.35882C29.8879 5.82285 28.352 5 26.6514 5C24.896 5 23.36 5.82285 22.2629 7.35882C21.5498 8.34624 21.2206 9.27879 21.1658 9.55308L1.08837 64.5191C0.814089 65.2871 1.19808 66.1648 1.96607 66.4391C2.13064 66.4939 2.29521 66.5488 2.45978 66.5488C2.95349 66.5488 3.39233 66.3294 3.66662 65.9454C3.72147 65.8905 3.77633 65.8356 3.77633 65.7808C6.73857 60.734 11.0174 56.5101 16.0641 53.5478C21.2755 50.5307 27.2548 48.885 33.3439 48.885C36.0867 48.885 38.8295 49.2142 41.4626 49.8725C42.2855 50.0919 43.0535 50.3113 43.8214 50.5856L46.3997 57.6621C46.3997 57.7169 47.442 60.4049 48.1551 62.27C49.0328 64.4642 50.6236 65.8905 52.6533 66.3842C53.0922 66.4939 53.531 66.5488 53.915 66.5488C55.5607 66.5488 57.2064 65.8905 58.4132 64.7385C59.6749 63.5317 60.388 62.0506 60.388 60.35C60.4429 58.8689 59.9492 57.3878 59.0166 56.2907ZM14.583 50.9696C11.8402 52.5604 9.31682 54.5352 7.06771 56.7295L23.9086 10.4308C23.9086 10.4308 24.1829 9.71764 24.6217 9.05937C25.1154 8.34624 25.7189 7.96224 26.5966 7.96224C27.4743 7.96224 28.0777 8.34624 28.5714 9.05937C29.0651 9.71764 29.2845 10.3759 29.2845 10.4308L42.5597 47.0199C39.5975 46.2519 36.5256 45.868 33.3987 45.868C26.7611 45.9228 20.2881 47.6782 14.583 50.9696ZM56.3835 62.5443C55.5058 63.3671 54.299 63.7511 53.2567 63.4768C52.2145 63.2574 51.3916 62.4346 50.8979 61.1729C50.1848 59.3626 49.1974 56.7844 49.1425 56.6198L47.4968 52.0119C49.3619 52.8896 51.227 53.9318 53.147 55.1935C54.3539 56.0164 55.835 57.0586 56.6578 58.1009C57.4258 59.0883 57.9744 61.0083 56.3835 62.5443Z" fill="url(#paint0_linear)"/>
<path d="M33.3439 45.9228C26.7611 45.9228 20.2332 47.6782 14.583 50.9696C11.8402 52.5604 9.31683 54.5353 7.06772 56.7295L6.62887 57.9364L3.77634 65.7259C6.73858 60.6792 11.0174 56.4552 16.0642 53.5478C21.2755 50.5308 27.2548 48.8851 33.3439 48.8851C36.0867 48.8851 38.8295 49.2142 41.4626 49.8725C42.2855 50.0919 43.0535 50.3113 43.8214 50.5856L42.5598 47.0748C39.5975 46.3068 36.4707 45.9228 33.3439 45.9228Z" fill="url(#paint1_linear)"/>
<path d="M59.0167 56.2907C57.9196 54.8644 56.1642 53.6576 54.7928 52.725C51.8306 50.7502 49.0877 49.3239 46.1255 48.2268L47.4969 52.0119C49.362 52.8896 51.2271 53.9318 53.1471 55.1935C54.3539 56.0164 55.8351 57.0586 56.6579 58.1009C57.0419 58.5946 57.371 59.4175 57.371 60.2403H60.3333C60.3881 58.8141 59.8944 57.3878 59.0167 56.2907Z" fill="url(#paint2_linear)"/>
<defs>
<linearGradient id="paint0_linear" x1="0.977506" y1="35.7557" x2="60.4068" y2="35.7557" gradientUnits="userSpaceOnUse">
<stop stop-color="#FCDA00"/>
<stop offset="0.0412963" stop-color="#FACE0C"/>
<stop offset="0.1529" stop-color="#F6AF1C"/>
<stop offset="0.27" stop-color="#F39521"/>
<stop offset="0.3913" stop-color="#F08023"/>
<stop offset="0.5183" stop-color="#EF6F24"/>
<stop offset="0.6533" stop-color="#EE6225"/>
<stop offset="0.8021" stop-color="#ED5925"/>
<stop offset="0.991" stop-color="#ED5625"/>
<stop offset="1" stop-color="#ED5625"/>
</linearGradient>
<linearGradient id="paint1_linear" x1="3.80679" y1="55.8143" x2="43.8114" y2="55.8143" gradientUnits="userSpaceOnUse">
<stop offset="0.2768" stop-color="white" stop-opacity="0"/>
<stop offset="0.3255" stop-color="#ECEBEB" stop-opacity="0.0113339"/>
<stop offset="0.4001" stop-color="#CCC9C9" stop-opacity="0.0287315"/>
<stop offset="0.4915" stop-color="#9F9B9B" stop-opacity="0.0500372"/>
<stop offset="0.5961" stop-color="#696565" stop-opacity="0.0744124"/>
<stop offset="0.7103" stop-color="#353232" stop-opacity="0.101"/>
<stop offset="0.7917" stop-color="#0A0608" stop-opacity="0.12"/>
<stop offset="0.905" stop-color="#0A0608" stop-opacity="0.23"/>
</linearGradient>
<linearGradient id="paint2_linear" x1="46.1291" y1="54.2364" x2="60.4062" y2="54.2364" gradientUnits="userSpaceOnUse">
<stop offset="0.1078" stop-color="#0A0608" stop-opacity="0.23"/>
<stop offset="0.2389" stop-color="#0A0608" stop-opacity="0.2"/>
<stop offset="0.307" stop-color="#1A1718" stop-opacity="0.1787"/>
<stop offset="0.439" stop-color="#3B3737" stop-opacity="0.1373"/>
<stop offset="0.6216" stop-color="#757070" stop-opacity="0.0800656"/>
<stop offset="0.8459" stop-color="#E4E2E2" stop-opacity="0.01"/>
<stop offset="0.8771" stop-color="white" stop-opacity="0"/>
</linearGradient>
</defs>
</svg>
